<?xml version="1.0" encoding="iso-8859-1"?>
<!-- Generator: Adobe Illustrator 18.1.1, SVG Export Plug-In . SVG Version: 6.00 Build 0)  -->
<svg version="1.1" id="Capa_1" xmlns="http://www.w3.org/2000/svg" xmlns:xlink="http://www.w3.org/1999/xlink" x="0px" y="0px"
	 viewBox="0 0 14.255 14.255" style="enable-background:new 0 0 14.255 14.255;" xml:space="preserve">
<g>
	<g>
		<path style="fill:#030104;" d="M5.314,5.651c0-1.068-0.528-1.585-1.332-1.585c-0.319,0-0.562,0.036-0.687,0.084v3.147
			c0.159,0.06,0.36,0.084,0.603,0.084C4.777,7.381,5.314,6.768,5.314,5.651z"/>
		<path style="fill:#030104;" d="M0,11.954l8.608,2.227V0.074L0,2.302V11.954z M2.565,3.393c0.352-0.085,0.813-0.156,1.4-0.156
			c0.721,0,1.248,0.24,1.583,0.673c0.31,0.385,0.494,0.973,0.494,1.694c0,0.732-0.151,1.31-0.436,1.729
			C5.22,7.922,4.592,8.223,3.88,8.223c-0.218,0-0.419-0.013-0.586-0.072v3.244H2.565V3.393z"/>
		<polygon style="fill:#030104;" points="9.355,1.854 9.355,2.709 12.261,2.709 12.261,5.132 9.355,5.132 9.355,6.041 12.261,6.041 
			12.261,7.123 9.355,7.123 9.355,7.978 12.261,7.978 12.261,9.06 9.355,9.06 9.355,10.029 12.261,10.029 12.261,11.112 
			9.355,11.112 9.355,12.91 14.255,12.91 14.255,1.854 		"/>
	</g>
</g>
<g>
</g>
<g>
</g>
<g>
</g>
<g>
</g>
<g>
</g>
<g>
</g>
<g>
</g>
<g>
</g>
<g>
</g>
<g>
</g>
<g>
</g>
<g>
</g>
<g>
</g>
<g>
</g>
<g>
</g>
</svg>
